<?xml version="1.0" standalone="no"?>
<!DOCTYPE svg PUBLIC "-//W3C//DTD SVG 20010904//EN"
 "http://www.w3.org/TR/2001/REC-SVG-20010904/DTD/svg10.dtd">
<svg version="1.0" xmlns="http://www.w3.org/2000/svg"
 width="201.000000pt" height="103.000000pt" viewBox="0 0 201.000000 103.000000"
 preserveAspectRatio="xMidYMid meet">

<g transform="translate(0.000000,103.000000) scale(0.100000,-0.100000)"
fill="#000000" stroke="none">
<path d="M0 515 l0 -515 1005 0 1005 0 0 515 0 515 -1005 0 -1005 0 0 -515z
m1223 484 c42 -19 47 -47 47 -254 0 -191 0 -194 -24 -222 l-24 -28 -212 0
-212 0 -24 28 c-24 28 -24 31 -24 222 0 203 5 235 44 253 29 15 398 15 429 1z
m-549 -580 c141 -35 168 -241 44 -320 -45 -27 -154 -23 -195 7 -45 34 -66 80
-66 144 0 102 58 165 166 179 5 1 28 -4 51 -10z m-499 -69 c28 -38 52 -70 55
-70 3 0 27 32 55 70 46 66 52 70 87 70 l38 0 0 -171 0 -170 -32 3 -33 3 -5
115 -5 115 -49 -68 c-28 -37 -53 -67 -57 -67 -3 0 -31 33 -60 73 l-54 72 -3
-122 -3 -123 -29 0 -30 0 0 170 0 170 38 0 c35 0 41 -4 87 -70z m905 40 c0
-29 -1 -30 -50 -30 l-50 0 0 -141 0 -140 -32 3 -33 3 -3 138 -3 137 -49 0
c-49 0 -50 1 -50 30 l0 30 135 0 135 0 0 -30z m110 -141 l0 -170 -32 3 -33 3
-3 168 -2 167 35 0 35 0 0 -171z m50 0 c0 -132 -3 -170 -12 -167 -10 4 -14 49
-16 171 -2 144 0 167 13 167 13 0 15 -24 15 -171z m164 80 c32 -49 62 -92 66
-94 4 -3 36 38 70 90 35 52 69 95 76 95 11 0 14 -33 14 -170 0 -107 -4 -170
-10 -170 -6 0 -10 57 -10 152 l0 153 -65 -98 c-36 -53 -69 -97 -73 -97 -4 0
-34 42 -67 92 l-60 92 -3 -148 c-2 -111 -6 -146 -15 -143 -9 3 -13 50 -15 170
-3 207 3 212 92 76z m506 76 c53 -27 61 -110 13 -138 -11 -7 -9 -12 11 -28 30
-23 41 -66 26 -103 -15 -39 -64 -56 -165 -56 l-85 0 0 170 0 170 85 0 c56 0
96 -5 115 -15z"/>
<path d="M1097 883 c-4 -3 -7 -14 -7 -23 0 -29 -37 -53 -82 -54 -43 -2 -78 16
-78 39 0 7 -7 18 -16 25 -12 11 -18 10 -31 -3 -20 -19 -10 -47 16 -47 29 0 42
-31 33 -81 -7 -43 -8 -44 -52 -49 -44 -5 -45 -6 -45 -40 0 -33 2 -35 35 -35
27 0 36 5 38 20 2 11 11 28 19 37 14 15 18 15 47 2 39 -19 81 -6 98 31 13 29
30 32 48 10 28 -34 87 6 64 43 -15 23 -38 26 -57 7 -20 -20 -44 -19 -56 2 -13
23 15 70 46 78 28 7 32 45 5 45 -10 0 -22 -3 -25 -7z"/>
<path d="M574 359 c-32 -16 -54 -62 -54 -112 0 -138 181 -158 214 -24 9 36 -9
99 -34 122 -23 21 -96 29 -126 14z"/>
<path d="M1738 394 c-5 -4 -8 -34 -8 -66 l0 -58 83 0 c92 0 117 13 117 62 0
43 -33 62 -113 66 -40 2 -75 0 -79 -4z"/>
<path d="M1730 175 l0 -65 78 0 c95 0 126 14 130 57 6 56 -23 73 -123 73 l-85
0 0 -65z"/>
</g>
</svg>
